HIERARCHY
ROOT Hips
{
	OFFSET 0.00 0.00 0.00
	CHANNELS 6 Xposition Yposition Zposition Xrotation Yrotation Zrotation
	JOINT Spine
	{
		OFFSET 0.00000 1.15266 1.72900
		CHANNELS 3 Xrotation Yrotation Zrotation
		JOINT Spine1
		{
			OFFSET 0.00000 0.40032 2.27031
			CHANNELS 3 Xrotation Yrotation Zrotation
			JOINT Spine2
			{
				OFFSET 0.00000 0.20092 2.29656
				CHANNELS 3 Xrotation Yrotation Zrotation
				JOINT Spine3
				{
					OFFSET 0.00000 0.00000 2.30533
					CHANNELS 3 Xrotation Yrotation Zrotation
					JOINT Neck
					{
						OFFSET 0.00000 -0.86449 6.05149
						CHANNELS 3 Xrotation Yrotation Zrotation
						JOINT Head
						{
							OFFSET 0.00000 -0.55043 3.12167
							CHANNELS 3 Xrotation Yrotation Zrotation
							End Site
							{
								OFFSET 0.00000 0.00000 3.73175
							}
						}
					}
					JOINT RightShoulder
					{
						OFFSET -0.78828 -1.31380 4.25672
						CHANNELS 3 Xrotation Yrotation Zrotation
						JOINT RightArm
						{
							OFFSET -3.91513 0.00000 0.00000
							CHANNELS 3 Xrotation Yrotation Zrotation
							JOINT RightForeArm
							{
								OFFSET -6.91491 0.00000 0.00000
								CHANNELS 3 Xrotation Yrotation Zrotation
								JOINT RightHand
								{
									OFFSET -6.09622 0.00000 0.00000
									CHANNELS 3 Xrotation Yrotation Zrotation
									JOINT RightHandEnd
									{
										OFFSET -1.74995 0.00000 0.00000
										CHANNELS 3 Xrotation Yrotation Zrotation
										End Site
										{
											OFFSET -1.74995 0.00000 0.00000
										}
									}
									JOINT RightHandThumb1
									{
										OFFSET -0.69998 -1.16663 -0.46665
										CHANNELS 3 Yrotation Xrotation Zrotation
										End Site
										{
											OFFSET -1.69032 -0.45292 0.00000
										}
									}
								}
							}
						}
					}
					JOINT LeftShoulder
					{
						OFFSET 0.78828 -1.31380 4.25672
						CHANNELS 3 Xrotation Yrotation Zrotation
						JOINT LeftArm
						{
							OFFSET 3.91513 0.00000 0.00000
							CHANNELS 3 Xrotation Yrotation Zrotation
							JOINT LeftForeArm
							{
								OFFSET 6.91491 0.00000 0.00000
								CHANNELS 3 Xrotation Yrotation Zrotation
								JOINT LeftHand
								{
									OFFSET 6.09622 0.00000 0.00000
									CHANNELS 3 Xrotation Yrotation Zrotation
									JOINT LeftHandEnd
									{
										OFFSET 1.74995 0.00000 0.00000
										CHANNELS 3 Xrotation Yrotation Zrotation
										End Site
										{
											OFFSET 1.74995 0.00000 0.00000
										}
									}
									JOINT LeftHandThumb1
									{
										OFFSET 0.69998 -1.16663 -0.46665
										CHANNELS 3 Yrotation Xrotation Zrotation
										End Site
										{
											OFFSET 1.69032 -0.45292 0.00000
										}
									}
								}
							}
						}
					}
				}
			}
		}
	}
	JOINT RightUpLeg
	{
		OFFSET -2.33857 0.00000 -0.68318
		CHANNELS 3 Xrotation Yrotation Zrotation
		JOINT RightLeg
		{
			OFFSET 0.00000 0.00000 -10.74496
			CHANNELS 3 Xrotation Yrotation Zrotation
			JOINT RightFoot
			{
				OFFSET 0.00000 0.00000 -10.93085
				CHANNELS 3 Xrotation Yrotation Zrotation
				JOINT RightToeBase
				{
					OFFSET 0.00000 -4.08727 -1.48765
					CHANNELS 3 Xrotation Yrotation Zrotation
					End Site
					{
						OFFSET 0.00000 -1.89187 -0.00000
					}
				}
			}
		}
	}
	JOINT LeftUpLeg
	{
		OFFSET 2.33857 0.00000 -0.68318
		CHANNELS 3 Xrotation Yrotation Zrotation
		JOINT LeftLeg
		{
			OFFSET 0.00000 0.00000 -10.74496
			CHANNELS 3 Xrotation Yrotation Zrotation
			JOINT LeftFoot
			{
				OFFSET 0.00000 0.00000 -10.93085
				CHANNELS 3 Xrotation Yrotation Zrotation
				JOINT LeftToeBase
				{
					OFFSET 0.00000 -4.08727 -1.48765
					CHANNELS 3 Xrotation Yrotation Zrotation
					End Site
					{
						OFFSET 0.00000 -1.89187 -0.00000
					}
				}
			}
		}
	}
}
MOTION
Frames: 12
Frame Time: 0.008342
 7.3054 -14.2959 24.0301 -0.7471 10.5154 103.0710 19.5829 -5.4806 0.1018 6.5896 -3.6330 0.4308 5.6846 2.4413 17.0644 -4.5923 4.0233 2.2066 -26.8350 7.6577 8.1859 -14.6389 -3.3452 -5.0093 5.2910 -13.8389 21.1160 -48.3486 -41.2780 -43.9127 -0.0000 0.0001 54.7403 21.7571 32.2576 -15.4121 -0.0000 -0.0000 0.0000 0.0000 -0.0000 0.0000 5.6537 7.9794 -2.4475 9.4401 56.4143 -12.1122 -0.0000 -0.0000 -1.5400 -17.0262 -20.0180 5.9904 -0.0000 0.0000 -0.0000 -0.0000 -0.0000 0.0000 -30.7617 5.4682 -10.1751 37.2977 0.0000 0.0000 -14.1496 -0.0211 -29.6851 4.1307 0.0000 0.0000 -29.6041 -8.6738 21.2638 33.7127 0.0000 0.0000 -13.2833 2.1296 4.6582 -0.0508 0.0000 -0.0000
 7.3092 -14.3145 24.0447 -0.8797 10.5265 104.4969 19.3281 -5.3000 -0.0494 6.5161 -3.6255 0.4052 5.7176 2.4019 16.7043 -4.5956 4.0279 2.1416 -26.8983 7.7062 7.9580 -14.5062 -3.3844 -5.1535 5.3757 -14.1458 20.9120 -48.3365 -40.7105 -44.4006 -0.0000 0.0001 54.0613 21.4543 32.3838 -15.3608 0.0000 0.0000 0.0000 0.0000 -0.0000 0.0000 5.5090 7.8114 -2.4302 9.5702 56.5944 -12.2672 -0.0000 -0.0000 -1.6162 -17.0627 -20.0322 5.9287 0.0000 0.0000 0.0000 -0.0000 -0.0000 0.0000 -30.5654 5.7183 -10.6371 37.2216 0.0000 0.0000 -14.0096 0.5749 -30.4162 3.7494 0.0000 0.0000 -29.4700 -8.1869 21.0048 32.8726 0.0000 0.0000 -13.0947 1.9792 3.9200 0.0270 0.0000 0.0000
 7.3123 -14.3348 24.0524 -1.0040 10.4831 105.8889 19.1268 -5.1175 -0.1814 6.4602 -3.5997 0.3805 5.7634 2.3662 16.3680 -4.5883 4.0220 2.0825 -26.9321 7.7397 7.6983 -14.3915 -3.4233 -5.3210 5.4941 -14.3802 20.6763 -48.3642 -40.2177 -44.8169 -0.0000 0.0001 53.3211 21.0062 32.4252 -15.3000 0.0000 -0.0000 0.0000 -0.0000 0.0000 -0.0000 5.3962 7.5940 -2.4328 9.8388 56.7960 -12.5863 -0.0000 -0.0000 -1.7126 -17.1264 -20.0749 5.8918 0.0000 0.0000 0.0000 0.0000 0.0000 0.0000 -30.4090 5.8908 -10.8352 37.2991 0.0000 0.0000 -13.7711 1.4237 -31.0977 3.3287 0.0000 0.0000 -29.4262 -7.7597 20.5419 32.2471 0.0000 0.0000 -12.8586 1.8710 3.2293 0.0375 0.0000 0.0000
 7.3156 -14.3587 24.0525 -1.1531 10.3636 107.2378 18.9926 -4.9647 -0.2846 6.4219 -3.5589 0.3614 5.8223 2.3387 16.0551 -4.5728 4.0035 2.0355 -26.9352 7.7558 7.4132 -14.2909 -3.4627 -5.5092 5.6396 -14.5391 20.4079 -48.4170 -39.8264 -45.1523 -0.0000 0.0001 52.5196 20.3910 32.3970 -15.2340 -0.0000 -0.0000 0.0000 -0.0000 -0.0000 -0.0000 5.3170 7.3369 -2.4631 10.2209 57.0080 -13.0351 -0.0000 -0.0000 -1.8317 -17.2077 -20.1586 5.8752 -0.0000 -0.0000 0.0000 0.0000 0.0000 0.0000 -30.2851 5.9277 -10.7288 37.5514 0.0000 0.0000 -13.4543 2.5028 -31.6840 2.8986 0.0000 0.0000 -29.4661 -7.4444 19.8956 31.8874 0.0000 0.0000 -12.6267 1.8047 2.6100 -0.0071 0.0000 -0.0000
 7.3203 -14.3864 24.0446 -1.3129 10.1399 108.5243 18.9579 -4.8355 -0.3581 6.4023 -3.5033 0.3458 5.8915 2.3177 15.7754 -4.5485 3.9724 1.9985 -26.9137 7.7584 7.1107 -14.1993 -3.5088 -5.7099 5.7961 -14.6241 20.1096 -48.4671 -39.5540 -45.4025 -0.0000 0.0001 51.6636 19.6048 32.3276 -15.1734 -0.0000 0.0000 -0.0000 0.0000 -0.0000 -0.0000 5.2762 7.0489 -2.5215 10.7099 57.2233 -13.6096 -0.0000 -0.0000 -1.9645 -17.2966 -20.2924 5.8591 -0.0000 -0.0000 0.0000 0.0000 -0.0000 0.0000 -30.1740 5.8190 -10.2861 38.0106 0.0000 0.0000 -13.1141 3.7638 -32.1040 2.4860 0.0000 0.0000 -29.5401 -7.2413 19.1162 31.7930 0.0000 0.0000 -12.4360 1.7756 2.0723 -0.0832 0.0000 -0.0000
 7.3245 -14.4184 24.0276 -1.4884 9.8644 109.7376 18.9788 -4.7179 -0.4070 6.4007 -3.4349 0.3339 5.9680 2.3011 15.5312 -4.5176 3.9314 1.9745 -26.8771 7.7476 6.7995 -14.1140 -3.5597 -5.9153 5.9487 -14.6263 19.7880 -48.5115 -39.4166 -45.5892 -0.0000 0.0001 50.7608 18.6561 32.2478 -15.1177 -0.0000 -0.0000 0.0000 0.0000 -0.0000 0.0000 5.2722 6.7421 -2.6078 11.2842 57.4327 -14.2870 -0.0000 -0.0000 -2.1078 -17.3618 -20.4832 5.8319 0.0000 0.0000 -0.0000 -0.0000 0.0000 -0.0000 -30.1530 5.5661 -9.4948 38.7173 0.0000 0.0000 -12.8276 5.1407 -32.2832 2.1168 0.0000 0.0000 -29.6938 -7.1393 18.2526 31.9564 0.0000 0.0000 -12.3091 1.7763 1.6138 -0.1683 0.0000 -0.0000
 7.3282 -14.4553 24.0015 -1.6824 9.5359 110.8795 19.0636 -4.6114 -0.4368 6.4156 -3.3573 0.3253 6.0518 2.2859 15.3244 -4.4844 3.8797 1.9631 -26.8384 7.7297 6.4934 -14.0361 -3.6165 -6.1240 6.0832 -14.5448 19.4506 -48.5356 -39.4185 -45.7255 -0.0000 0.0001 49.8224 17.5680 32.1988 -15.0738 0.0000 -0.0000 -0.0000 -0.0000 0.0000 -0.0000 5.3069 6.4282 -2.7248 11.9309 57.6281 -15.0596 -0.0000 -0.0000 -2.2533 -17.3746 -20.7354 5.7769 -0.0000 -0.0000 -0.0000 -0.0000 -0.0000 -0.0000 -30.2206 5.1643 -8.3910 39.6753 0.0000 0.0000 -12.6884 6.5571 -32.1395 1.8106 0.0000 0.0000 -29.9131 -7.1353 17.3460 32.3525 0.0000 0.0000 -12.2642 1.8048 1.2083 -0.2405 0.0000 -0.0000
 7.3304 -14.4979 23.9665 -1.8966 9.1732 111.9561 19.2051 -4.5068 -0.4559 6.4443 -3.2741 0.3195 6.1414 2.2680 15.1550 -4.4523 3.8135 1.9645 -26.8134 7.7159 6.2049 -13.9704 -3.6814 -6.3345 6.1876 -14.3735 19.1067 -48.5369 -39.5579 -45.8359 -0.0000 0.0000 48.8632 16.3695 32.2133 -15.0438 0.0000 0.0000 0.0000 0.0000 -0.0000 0.0000 5.3805 6.1216 -2.8749 12.6392 57.8019 -15.9252 -0.0000 -0.0000 -2.3917 -17.3069 -21.0503 5.6779 -0.0000 0.0000 -0.0000 -0.0000 0.0000 0.0000 -30.3942 4.6242 -7.0343 40.8754 0.0000 0.0000 -12.7975 7.9274 -31.5898 1.5812 0.0000 0.0000 -30.2045 -7.2149 16.4326 32.9465 0.0000 0.0000 -12.3083 1.8573 0.8243 -0.2845 0.0000 -0.0000
 7.3300 -14.5467 23.9228 -2.1368 8.8003 112.9785 19.3932 -4.4006 -0.4738 6.4841 -3.1904 0.3179 6.2326 2.2462 15.0179 -4.4240 3.7404 1.9802 -26.8202 7.7047 5.9330 -13.9232 -3.7534 -6.5385 6.2574 -14.1173 18.7665 -48.5172 -39.8270 -45.9387 -0.0000 0.0000 47.8967 15.0928 32.3140 -15.0261 0.0000 -0.0000 -0.0000 -0.0000 0.0000 -0.0000 5.4918 5.8118 -3.0534 13.4222 57.9609 -16.9158 -0.0000 -0.0000 -2.5046 -17.1387 -21.4244 5.5133 -0.0000 -0.0000 0.0000 0.0000 -0.0000 -0.0000 -30.6936 3.9615 -5.5024 42.2867 0.0000 0.0000 -13.2430 9.1586 -30.5647 1.4372 0.0000 0.0000 -30.5857 -7.3658 15.5405 33.7038 0.0000 0.0000 -12.4428 1.9284 0.4262 -0.2931 0.0000 -0.0000
 7.3259 -14.6025 23.8710 -2.4059 8.4411 113.9596 19.6164 -4.2831 -0.4988 6.5311 -3.1076 0.3201 6.3264 2.2174 14.9087 -4.4040 3.6525 2.0090 -26.8751 7.7102 5.6893 -13.9045 -3.8321 -6.7400 6.2934 -13.7702 18.4419 -48.4896 -40.2124 -46.0576 -0.0000 0.0000 46.9410 13.7708 32.5078 -15.0152 0.0000 -0.0000 -0.0000 -0.0000 -0.0000 0.0000 5.6395 5.5162 -3.2595 14.2819 58.0926 -18.0455 -0.0000 -0.0000 -2.5845 -16.8553 -21.8601 5.2820 -0.0000 -0.0000 -0.0000 -0.0000 -0.0000 -0.0000 -31.1355 3.2011 -3.8757 43.8602 0.0000 0.0000 -14.0826 10.1510 -29.0212 1.3786 0.0000 0.0000 -31.0744 -7.5727 14.6906 34.5917 0.0000 0.0000 -12.6653 2.0115 -0.0164 -0.2694 0.0000 -0.0000
 7.3169 -14.6654 23.8118 -2.7020 8.1220 114.9088 19.8630 -4.1446 -0.5380 6.5834 -3.0266 0.3176 6.4197 2.1820 14.8359 -4.3937 3.5560 2.0422 -26.9944 7.7316 5.4758 -13.9234 -3.9156 -6.9386 6.3026 -13.3388 18.1448 -48.4743 -40.6963 -46.2117 -0.0000 0.0000 46.0138 12.4301 32.7814 -14.9978 0.0000 -0.0000 -0.0000 -0.0000 -0.0000 -0.0000 5.8137 5.2243 -3.4861 15.2365 58.2030 -19.3457 -0.0000 -0.0000 -2.6192 -16.4573 -22.3540 4.9776 -0.0000 -0.0000 0.0000 -0.0000 0.0000 -0.0000 -31.7394 2.3768 -2.2236 45.5353 0.0000 0.0000 -15.3237 10.8012 -26.9540 1.4031 0.0000 0.0000 -31.6886 -7.8181 13.9046 35.5804 0.0000 0.0000 -12.9708 2.0968 -0.5253 -0.2254 0.0000 -0.0000
 7.3032 -14.7368 23.7459 -3.0465 7.8407 115.8433 20.1353 -4.0030 -0.5910 6.6385 -2.9496 0.3258 6.5125 2.1413 14.7664 -4.3969 3.4483 2.0908 -27.1891 7.7704 5.2880 -13.9884 -4.0025 -7.1330 6.3012 -12.8393 17.8826 -48.4834 -41.2560 -46.3993 -0.0000 0.0000 45.1359 11.0919 33.1139 -14.9636 0.0000 0.0000 -0.0000 0.0000 -0.0000 0.0000 6.0180 4.9299 -3.7220 16.3298 58.2827 -20.8879 -0.0000 -0.0000 -2.5906 -15.9728 -22.9029 4.6019 0.0000 0.0000 0.0000 0.0000 -0.0000 0.0000 -32.4968 1.4902 -0.6174 47.2263 0.0000 0.0000 -16.9028 11.0146 -24.4142 1.5036 0.0000 0.0000 -32.4424 -8.1218 13.1837 36.6653 0.0000 0.0000 -13.3631 2.1788 -1.1186 -0.1828 0.0000 -0.0000
